Coordinates
version=1
nRows=14
nColumns=24
inDegrees=yes

Units are S.I. units (second, meters, Newtons, ...)
Angles are in degrees.

endheader
time	pelvis_tilt	pelvis_list	pelvis_rotation	pelvis_tx	pelvis_ty	pelvis_tz	hip_flexion_r	hip_adduction_r	hip_rotation_r	knee_angle_r	ankle_angle_r	subtalar_angle_r	mtp_angle_r	hip_flexion_l	hip_adduction_l	hip_rotation_l	knee_angle_l	ankle_angle_l	subtalar_angle_l	mtp_angle_l	lumbar_extension	lumbar_bending	lumbar_rotation
      0.66466667	     -3.22203712	     -4.33242383	      3.48388406	     -0.46041816	      0.90126453	      0.30960226	     15.04619685	     10.94763937	     -1.17671227	    -23.33498946	     12.51408134	     -4.25188168	      1.47078481	     24.17077276	     -8.38701275	     -6.03311837	    -78.05032867	      2.20823309	     -8.05661677	      0.90731796	     -7.66218047	      5.92360806	      1.35101664
      0.66883333	     -3.28572508	     -4.12741426	      3.37972412	     -0.45485990	      0.90247260	      0.30960414	     14.38173523	     10.76655476	     -0.96518834	    -22.72333137	     12.54719946	     -4.16501150	      1.48463697	     24.90277322	     -8.06407412	     -6.15810774	    -77.64628026	      2.59009560	     -8.51477175	      0.82094181	     -7.63291665	      5.71040728	      1.49335794
      0.67300000	     -3.32154957	     -3.91153046	      3.26878419	     -0.44927450	      0.90371708	      0.30961726	     13.67719699	     10.57499493	     -0.74400512	    -22.09425868	     12.59515140	     -4.08901369	      1.51054272	     25.57243746	     -7.73460647	     -6.29273010	    -77.14733960	      2.88245636	     -8.96469032	      0.66654943	     -7.63081542	      5.47166785	      1.72547627
      0.67716667	     -3.36123165	     -3.69946481	      3.13576656	     -0.44369914	      0.90490349	      0.30965133	     12.98713460	     10.38412691	     -0.51800691	    -21.47957913	     12.59413419	     -3.98675584	      1.52374431	     26.22071025	     -7.41719526	     -6.43788536	    -76.58385207	      3.28066454	     -9.30867580	      0.58712126	     -7.63379878	      5.25416196	      1.84741531
      0.68133333	     -3.36345598	     -3.47731330	      2.99837878	     -0.43809246	      0.90613015	      0.30969778	     12.24344132	     10.18369882	     -0.28093843	    -20.83909908	     12.60074492	     -3.90298575	      1.53905902	     26.79612338	     -7.09818283	     -6.59412132	    -75.93116926	      3.59657037	     -9.65289646	      0.49692317	     -7.67381817	      5.01417445	      2.02284477
      0.68550000	     -3.36741948	     -3.26399424	      2.85143686	     -0.43246245	      0.90730265	      0.30976980	     11.50132630	      9.98877334	     -0.05762301	    -20.19366804	     12.59937291	     -3.80863206	      1.55081373	     27.34920553	     -6.80099181	     -6.75691730	    -75.21231653	      3.91663333	     -9.92754261	      0.42660083	     -7.69053797	      4.76891336	      2.17743613
      0.68966667	     -3.33013297	     -3.06563321	      2.69628301	     -0.42683754	      0.90849408	      0.30985687	     10.70099114	      9.81620201	      0.21997584	    -19.51323985	     12.57308167	     -3.77181082	      1.59982577	     27.83594893	     -6.52449993	     -6.90800403	    -74.42588376	      4.18386976	    -10.17035638	      0.15128945	     -7.78746685	      4.56746253	      2.56051972
      0.69383333	     -3.30849289	     -2.82934816	      2.52288182	     -0.42122403	      0.90961343	      0.30994415	      9.94778897	      9.58917007	      0.45636773	    -18.89675900	     12.56822181	     -3.66728936	      1.61149699	     28.30284903	     -6.21009343	     -7.08055416	    -73.55595917	      4.46899971	    -10.36518620	      0.08191758	     -7.85525462	      4.30796539	      2.63249959
      0.69800000	     -3.25474581	     -2.61498542	      2.34880816	     -0.41559139	      0.91072483	      0.31003897	      9.14664067	      9.38409759	      0.69903049	    -18.24455586	     12.55073160	     -3.56843197	      1.62327592	     28.71506471	     -5.92832637	     -7.24376074	    -72.62639675	      4.71736299	    -10.54243436	      0.00924488	     -7.95521400	      4.07195500	      2.79187504
      0.70216667	     -3.17487457	     -2.42517348	      2.17984835	     -0.40994523	      0.91179460	      0.31015655	      8.30636111	      9.20635984	      0.94867363	    -17.56342764	     12.55515701	     -3.51748989	      1.64314873	     29.08493492	     -5.68366625	     -7.39178992	    -71.64978108	      4.93156828	    -10.67450148	     -0.10240140	     -8.08353193	      3.86273538	      3.04688492
      0.70633333	     -3.10628067	     -2.23037809	      1.98983785	     -0.40431610	      0.91278349	      0.31028887	      7.49575817	      9.01602576	      1.19821584	    -16.91005175	     12.51730166	     -3.44163263	      1.66277477	     29.43939026	     -5.43921225	     -7.54778150	    -70.60896240	      5.16156957	    -10.76694605	     -0.21476051	     -8.20053660	      3.64714074	      3.26496598
      0.71050000	     -3.03348338	     -2.04415264	      1.79537765	     -0.39869033	      0.91370170	      0.31042528	      6.68638706	      8.82931096	      1.43985666	    -16.26211394	     12.48264551	     -3.36271016	      1.68152382	     29.76947544	     -5.20991790	     -7.69856741	    -69.51344427	      5.37636627	    -10.83115041	     -0.32094831	     -8.31754397	      3.43721444	      3.47107002
      0.71466667	     -2.95461966	     -1.87294534	      1.59555456	     -0.39308454	      0.91454534	      0.31057781	      5.87595563	      8.65479603	      1.68588148	    -15.61517841	     12.43562645	     -3.28835480	      1.70494502	     30.07628691	     -5.00286493	     -7.83822951	    -68.36872374	      5.57938384	    -10.86942287	     -0.44531718	     -8.44611846	      3.24659859	      3.70414058
      0.71883333	     -2.87573380	     -1.70402129	      1.39255163	     -0.38747769	      0.91531123	      0.31072107	      5.07761001	      8.47451852	      1.91027026	    -14.98909703	     12.40537896	     -3.20153622	      1.72497253	     30.36058848	     -4.80063557	     -7.97404695	    -67.16754355	      5.76148503	    -10.88488040	     -0.54695267	     -8.57014518	      3.05259709	      3.90078469
